solid CATIA STL
  facet normal  0.000000e+000  0.000000e+000  1.000000e+000
    outer loop
      vertex -4.010000e+001 -1.200000e+001  2.000000e+000
      vertex -1.100000e+001 -1.200000e+001  2.000000e+000
      vertex -4.010000e+001  1.000000e+001  2.000000e+000
    endloop
  endfacet
  facet normal  -0.000000e+000  0.000000e+000  1.000000e+000
    outer loop
      vertex -4.010000e+001  1.000000e+001  2.000000e+000
      vertex -1.100000e+001 -1.200000e+001  2.000000e+000
      vertex -1.100000e+001  1.000000e+001  2.000000e+000
    endloop
  endfacet
  facet normal  0.000000e+000  0.000000e+000  9.999999e-001
    outer loop
      vertex -1.000000e+001  1.100000e+001  2.000000e+000
      vertex  4.433976e+001  7.680230e+000  2.000000e+000
      vertex  4.237840e+001  1.513509e+001  2.000000e+000
    endloop
  endfacet
  facet normal  0.000000e+000  0.000000e+000  1.000000e+000
    outer loop
      vertex -1.000000e+001  1.100000e+001  2.000000e+000
      vertex  4.237840e+001  1.513509e+001  2.000000e+000
      vertex  3.917349e+001  2.214582e+001  2.000000e+000
    endloop
  endfacet
  facet normal  0.000000e+000  0.000000e+000  1.000000e+000
    outer loop
      vertex -1.000000e+001  1.100000e+001  2.000000e+000
      vertex  3.917349e+001  2.214582e+001  2.000000e+000
      vertex  3.481907e+001  2.850671e+001  2.000000e+000
    endloop
  endfacet
  facet normal  0.000000e+000  0.000000e+000  1.000000e+000
    outer loop
      vertex -1.000000e+001  1.100000e+001  2.000000e+000
      vertex  3.481907e+001  2.850671e+001  2.000000e+000
      vertex  2.944291e+001  3.403109e+001  2.000000e+000
    endloop
  endfacet
  facet normal  0.000000e+000  0.000000e+000  1.000000e+000
    outer loop
      vertex -1.000000e+001  1.100000e+001  2.000000e+000
      vertex  2.944291e+001  3.403109e+001  2.000000e+000
      vertex  2.320311e+001  3.855742e+001  2.000000e+000
    endloop
  endfacet
  facet normal  0.000000e+000  0.000000e+000  1.000000e+000
    outer loop
      vertex -1.000000e+001  1.100000e+001  2.000000e+000
      vertex  2.320311e+001  3.855742e+001  2.000000e+000
      vertex  1.975711e+001  4.043161e+001  2.000000e+000
    endloop
  endfacet
  facet normal  0.000000e+000  0.000000e+000  1.000000e+000
    outer loop
      vertex -1.000000e+001  1.100000e+001  2.000000e+000
      vertex  1.975711e+001  4.043161e+001  2.000000e+000
      vertex -1.989020e+001  4.036558e+001  2.000000e+000
    endloop
  endfacet
  facet normal  0.000000e+000  0.000000e+000  1.000000e+000
    outer loop
      vertex -1.000000e+001  1.100000e+001  2.000000e+000
      vertex -1.989020e+001  4.036558e+001  2.000000e+000
      vertex -4.110000e+001  1.100000e+001  2.000000e+000
    endloop
  endfacet
  facet normal  0.000000e+000  0.000000e+000  1.000000e+000
    outer loop
      vertex -4.110000e+001  1.100000e+001  2.000000e+000
      vertex -1.989020e+001  4.036558e+001  2.000000e+000
      vertex -2.688479e+001  3.608612e+001  2.000000e+000
    endloop
  endfacet
  facet normal  0.000000e+000  0.000000e+000  1.000000e+000
    outer loop
      vertex -4.110000e+001  1.100000e+001  2.000000e+000
      vertex -2.688479e+001  3.608612e+001  2.000000e+000
      vertex -3.298669e+001  3.060847e+001  2.000000e+000
    endloop
  endfacet
  facet normal  0.000000e+000  0.000000e+000  1.000000e+000
    outer loop
      vertex -4.110000e+001  1.100000e+001  2.000000e+000
      vertex -3.298669e+001  3.060847e+001  2.000000e+000
      vertex -3.799331e+001  2.411448e+001  2.000000e+000
    endloop
  endfacet
  facet normal  0.000000e+000  0.000000e+000  1.000000e+000
    outer loop
      vertex -4.110000e+001  1.100000e+001  2.000000e+000
      vertex -3.799331e+001  2.411448e+001  2.000000e+000
      vertex -4.173840e+001  1.681981e+001  2.000000e+000
    endloop
  endfacet
  facet normal  0.000000e+000  0.000000e+000  9.999999e-001
    outer loop
      vertex -4.110000e+001  1.100000e+001  2.000000e+000
      vertex -4.173840e+001  1.681981e+001  2.000000e+000
      vertex -4.409761e+001  8.966652e+000  2.000000e+000
    endloop
  endfacet
  facet normal  -0.000000e+000  0.000000e+000  1.000000e+000
    outer loop
      vertex -4.110000e+001  1.100000e+001  2.000000e+000
      vertex -4.409761e+001  8.966652e+000  2.000000e+000
      vertex -4.110000e+001 -1.300000e+001  2.000000e+000
    endloop
  endfacet
  facet normal  0.000000e+000  0.000000e+000  1.000000e+000
    outer loop
      vertex -4.110000e+001 -1.300000e+001  2.000000e+000
      vertex -4.409761e+001  8.966652e+000  2.000000e+000
      vertex -4.499326e+001  8.157767e-001  2.000000e+000
    endloop
  endfacet
  facet normal  0.000000e+000  0.000000e+000  9.999999e-001
    outer loop
      vertex -4.110000e+001 -1.300000e+001  2.000000e+000
      vertex -4.499326e+001  8.157767e-001  2.000000e+000
      vertex -4.500000e+001  5.510911e-015  2.000000e+000
    endloop
  endfacet
  facet normal  0.000000e+000  0.000000e+000  1.000000e+000
    outer loop
      vertex -4.110000e+001 -1.300000e+001  2.000000e+000
      vertex -4.500000e+001  5.510911e-015  2.000000e+000
      vertex -4.489336e+001 -3.105644e+000  2.000000e+000
    endloop
  endfacet
  facet normal  0.000000e+000  0.000000e+000  1.000000e+000
    outer loop
      vertex -4.110000e+001 -1.300000e+001  2.000000e+000
      vertex -4.489336e+001 -3.105644e+000  2.000000e+000
      vertex -4.358385e+001 -1.120034e+001  2.000000e+000
    endloop
  endfacet
  facet normal  0.000000e+000  0.000000e+000  9.999999e-001
    outer loop
      vertex -4.110000e+001 -1.300000e+001  2.000000e+000
      vertex -4.358385e+001 -1.120034e+001  2.000000e+000
      vertex -4.082784e+001 -1.892319e+001  2.000000e+000
    endloop
  endfacet
  facet normal  -0.000000e+000  -0.000000e+000  1.000000e+000
    outer loop
      vertex -4.110000e+001 -1.300000e+001  2.000000e+000
      vertex -4.082784e+001 -1.892319e+001  2.000000e+000
      vertex -3.671619e+001 -2.601772e+001  2.000000e+000
    endloop
  endfacet
  facet normal  -0.000000e+000  -0.000000e+000  1.000000e+000
    outer loop
      vertex -4.110000e+001 -1.300000e+001  2.000000e+000
      vertex -3.671619e+001 -2.601772e+001  2.000000e+000
      vertex -3.138541e+001 -3.224835e+001  2.000000e+000
    endloop
  endfacet
  facet normal  -0.000000e+000  -0.000000e+000  1.000000e+000
    outer loop
      vertex -4.110000e+001 -1.300000e+001  2.000000e+000
      vertex -3.138541e+001 -3.224835e+001  2.000000e+000
      vertex -2.501252e+001 -3.740821e+001  2.000000e+000
    endloop
  endfacet
  facet normal  0.000000e+000  -0.000000e+000  1.000000e+000
    outer loop
      vertex -4.110000e+001 -1.300000e+001  2.000000e+000
      vertex -2.501252e+001 -3.740821e+001  2.000000e+000
      vertex  2.513588e+001 -3.732543e+001  2.000000e+000
    endloop
  endfacet
  facet normal  0.000000e+000  0.000000e+000  1.000000e+000
    outer loop
      vertex -4.110000e+001 -1.300000e+001  2.000000e+000
      vertex  2.513588e+001 -3.732543e+001  2.000000e+000
      vertex -1.000000e+001 -1.300000e+001  2.000000e+000
    endloop
  endfacet
  facet normal  0.000000e+000  -0.000000e+000  1.000000e+000
    outer loop
      vertex -1.000000e+001 -1.300000e+001  2.000000e+000
      vertex  2.513588e+001 -3.732543e+001  2.000000e+000
      vertex  3.086055e+001 -3.275098e+001  2.000000e+000
    endloop
  endfacet
  facet normal  0.000000e+000  -0.000000e+000  1.000000e+000
    outer loop
      vertex -1.000000e+001 -1.300000e+001  2.000000e+000
      vertex  3.086055e+001 -3.275098e+001  2.000000e+000
      vertex  3.576688e+001 -2.730807e+001  2.000000e+000
    endloop
  endfacet
  facet normal  0.000000e+000  -0.000000e+000  9.999999e-001
    outer loop
      vertex -1.000000e+001 -1.300000e+001  2.000000e+000
      vertex  3.576688e+001 -2.730807e+001  2.000000e+000
      vertex  3.972477e+001 -2.114102e+001  2.000000e+000
    endloop
  endfacet
  facet normal  0.000000e+000  -0.000000e+000  1.000000e+000
    outer loop
      vertex -1.000000e+001 -1.300000e+001  2.000000e+000
      vertex  3.972477e+001 -2.114102e+001  2.000000e+000
      vertex  4.262927e+001 -1.441337e+001  2.000000e+000
    endloop
  endfacet
  facet normal  0.000000e+000  -0.000000e+000  1.000000e+000
    outer loop
      vertex -1.000000e+001 -1.300000e+001  2.000000e+000
      vertex  4.262927e+001 -1.441337e+001  2.000000e+000
      vertex  4.440336e+001 -7.303520e+000  2.000000e+000
    endloop
  endfacet
  facet normal  0.000000e+000  -0.000000e+000  1.000000e+000
    outer loop
      vertex -1.000000e+001 -1.300000e+001  2.000000e+000
      vertex  4.440336e+001 -7.303520e+000  2.000000e+000
      vertex  4.500000e+001  0.000000e+000  2.000000e+000
    endloop
  endfacet
  facet normal  0.000000e+000  0.000000e+000  1.000000e+000
    outer loop
      vertex -1.000000e+001 -1.300000e+001  2.000000e+000
      vertex  4.500000e+001  0.000000e+000  2.000000e+000
      vertex  4.433976e+001  7.680230e+000  2.000000e+000
    endloop
  endfacet
  facet normal  0.000000e+000  0.000000e+000  1.000000e+000
    outer loop
      vertex -1.000000e+001 -1.300000e+001  2.000000e+000
      vertex  4.433976e+001  7.680230e+000  2.000000e+000
      vertex -1.000000e+001  1.100000e+001  2.000000e+000
    endloop
  endfacet
  facet normal  -0.000000e+000  0.000000e+000  1.000000e+000
    outer loop
      vertex  4.025958e+000  4.481955e+001  2.000000e+000
      vertex -4.173907e+000  4.480601e+001  2.000000e+000
      vertex  1.209215e+001  4.334489e+001  2.000000e+000
    endloop
  endfacet
  facet normal  0.000000e+000  0.000000e+000  1.000000e+000
    outer loop
      vertex  1.209215e+001  4.334489e+001  2.000000e+000
      vertex -4.173907e+000  4.480601e+001  2.000000e+000
      vertex -1.223518e+001  4.330474e+001  2.000000e+000
    endloop
  endfacet
  facet normal  -0.000000e+000  0.000000e+000  1.000000e+000
    outer loop
      vertex  1.209215e+001  4.334489e+001  2.000000e+000
      vertex -1.223518e+001  4.330474e+001  2.000000e+000
      vertex  1.975711e+001  4.043161e+001  2.000000e+000
    endloop
  endfacet
  facet normal  0.000000e+000  0.000000e+000  9.999999e-001
    outer loop
      vertex  1.975711e+001  4.043161e+001  2.000000e+000
      vertex -1.223518e+001  4.330474e+001  2.000000e+000
      vertex -1.989020e+001  4.036558e+001  2.000000e+000
    endloop
  endfacet
  facet normal  -0.000000e+000  0.000000e+000  1.000000e+000
    outer loop
      vertex  2.513588e+001 -3.732543e+001  2.000000e+000
      vertex -2.501252e+001 -3.740821e+001  2.000000e+000
      vertex  2.178983e+001 -3.937262e+001  2.000000e+000
    endloop
  endfacet
  facet normal  0.000000e+000  0.000000e+000  1.000000e+000
    outer loop
      vertex  2.178983e+001 -3.937262e+001  2.000000e+000
      vertex -2.501252e+001 -3.740821e+001  2.000000e+000
      vertex -1.780910e+001 -4.132597e+001  2.000000e+000
    endloop
  endfacet
  facet normal  -0.000000e+000  0.000000e+000  1.000000e+000
    outer loop
      vertex  2.178983e+001 -3.937262e+001  2.000000e+000
      vertex -1.780910e+001 -4.132597e+001  2.000000e+000
      vertex  1.428346e+001 -4.267298e+001  2.000000e+000
    endloop
  endfacet
  facet normal  0.000000e+000  0.000000e+000  1.000000e+000
    outer loop
      vertex  1.428346e+001 -4.267298e+001  2.000000e+000
      vertex -1.780910e+001 -4.132597e+001  2.000000e+000
      vertex -1.001436e+001 -4.387155e+001  2.000000e+000
    endloop
  endfacet
  facet normal  -0.000000e+000  0.000000e+000  1.000000e+000
    outer loop
      vertex  1.428346e+001 -4.267298e+001  2.000000e+000
      vertex -1.001436e+001 -4.387155e+001  2.000000e+000
      vertex  6.302816e+000 -4.455642e+001  2.000000e+000
    endloop
  endfacet
  facet normal  0.000000e+000  0.000000e+000  1.000000e+000
    outer loop
      vertex  6.302816e+000 -4.455642e+001  2.000000e+000
      vertex -1.001436e+001 -4.387155e+001  2.000000e+000
      vertex -1.887102e+000 -4.496041e+001  2.000000e+000
    endloop
  endfacet
  facet normal  1.000000e+000  -0.000000e+000  0.000000e+000
    outer loop
      vertex -4.010000e+001  1.000000e+001  4.000000e+000
      vertex -4.010000e+001 -1.200000e+001  4.000000e+000
      vertex -4.010000e+001  1.000000e+001  2.000000e+000
    endloop
  endfacet
  facet normal  1.000000e+000  0.000000e+000  0.000000e+000
    outer loop
      vertex -4.010000e+001  1.000000e+001  2.000000e+000
      vertex -4.010000e+001 -1.200000e+001  4.000000e+000
      vertex -4.010000e+001 -1.200000e+001  2.000000e+000
    endloop
  endfacet
  facet normal  0.000000e+000  1.000000e+000  -0.000000e+000
    outer loop
      vertex -1.100000e+001 -1.200000e+001  4.000000e+000
      vertex -1.100000e+001 -1.200000e+001  2.000000e+000
      vertex -4.010000e+001 -1.200000e+001  4.000000e+000
    endloop
  endfacet
  facet normal  0.000000e+000  1.000000e+000  0.000000e+000
    outer loop
      vertex -4.010000e+001 -1.200000e+001  4.000000e+000
      vertex -1.100000e+001 -1.200000e+001  2.000000e+000
      vertex -4.010000e+001 -1.200000e+001  2.000000e+000
    endloop
  endfacet
  facet normal -1.000000e+000  -0.000000e+000  0.000000e+000
    outer loop
      vertex -1.100000e+001 -1.200000e+001  4.000000e+000
      vertex -1.100000e+001  1.000000e+001  4.000000e+000
      vertex -1.100000e+001 -1.200000e+001  2.000000e+000
    endloop
  endfacet
  facet normal -1.000000e+000  0.000000e+000  0.000000e+000
    outer loop
      vertex -1.100000e+001 -1.200000e+001  2.000000e+000
      vertex -1.100000e+001  1.000000e+001  4.000000e+000
      vertex -1.100000e+001  1.000000e+001  2.000000e+000
    endloop
  endfacet
  facet normal  0.000000e+000 -1.000000e+000  0.000000e+000
    outer loop
      vertex -4.010000e+001  1.000000e+001  4.000000e+000
      vertex -4.010000e+001  1.000000e+001  2.000000e+000
      vertex -1.100000e+001  1.000000e+001  4.000000e+000
    endloop
  endfacet
  facet normal  0.000000e+000 -1.000000e+000  -0.000000e+000
    outer loop
      vertex -1.100000e+001  1.000000e+001  4.000000e+000
      vertex -4.010000e+001  1.000000e+001  2.000000e+000
      vertex -1.100000e+001  1.000000e+001  2.000000e+000
    endloop
  endfacet
  facet normal  0.000000e+000  1.000000e+000  0.000000e+000
    outer loop
      vertex -4.110000e+001  1.100000e+001  4.000000e+000
      vertex -1.000000e+001  1.100000e+001  4.000000e+000
      vertex -4.110000e+001  1.100000e+001  2.000000e+000
    endloop
  endfacet
  facet normal  0.000000e+000  1.000000e+000  0.000000e+000
    outer loop
      vertex -4.110000e+001  1.100000e+001  2.000000e+000
      vertex -1.000000e+001  1.100000e+001  4.000000e+000
      vertex -1.000000e+001  1.100000e+001  2.000000e+000
    endloop
  endfacet
  facet normal  1.000000e+000  0.000000e+000  0.000000e+000
    outer loop
      vertex -1.000000e+001 -1.300000e+001  4.000000e+000
      vertex -1.000000e+001 -1.300000e+001  2.000000e+000
      vertex -1.000000e+001  1.100000e+001  4.000000e+000
    endloop
  endfacet
  facet normal  1.000000e+000  0.000000e+000  0.000000e+000
    outer loop
      vertex -1.000000e+001  1.100000e+001  4.000000e+000
      vertex -1.000000e+001 -1.300000e+001  2.000000e+000
      vertex -1.000000e+001  1.100000e+001  2.000000e+000
    endloop
  endfacet
  facet normal  0.000000e+000 -1.000000e+000  0.000000e+000
    outer loop
      vertex -1.000000e+001 -1.300000e+001  4.000000e+000
      vertex -4.110000e+001 -1.300000e+001  4.000000e+000
      vertex -1.000000e+001 -1.300000e+001  2.000000e+000
    endloop
  endfacet
  facet normal  0.000000e+000 -1.000000e+000  0.000000e+000
    outer loop
      vertex -1.000000e+001 -1.300000e+001  2.000000e+000
      vertex -4.110000e+001 -1.300000e+001  4.000000e+000
      vertex -4.110000e+001 -1.300000e+001  2.000000e+000
    endloop
  endfacet
  facet normal -1.000000e+000  0.000000e+000  0.000000e+000
    outer loop
      vertex -4.110000e+001  1.100000e+001  4.000000e+000
      vertex -4.110000e+001  1.100000e+001  2.000000e+000
      vertex -4.110000e+001 -1.300000e+001  4.000000e+000
    endloop
  endfacet
  facet normal -1.000000e+000  0.000000e+000  0.000000e+000
    outer loop
      vertex -4.110000e+001 -1.300000e+001  4.000000e+000
      vertex -4.110000e+001  1.100000e+001  2.000000e+000
      vertex -4.110000e+001 -1.300000e+001  2.000000e+000
    endloop
  endfacet
  facet normal  0.000000e+000  0.000000e+000  1.000000e+000
    outer loop
      vertex -1.000000e+001 -1.300000e+001  4.000000e+000
      vertex -1.100000e+001 -1.200000e+001  4.000000e+000
      vertex -4.110000e+001 -1.300000e+001  4.000000e+000
    endloop
  endfacet
  facet normal  0.000000e+000  0.000000e+000  1.000000e+000
    outer loop
      vertex -4.110000e+001 -1.300000e+001  4.000000e+000
      vertex -1.100000e+001 -1.200000e+001  4.000000e+000
      vertex -4.010000e+001 -1.200000e+001  4.000000e+000
    endloop
  endfacet
  facet normal  0.000000e+000  0.000000e+000  1.000000e+000
    outer loop
      vertex -4.110000e+001 -1.300000e+001  4.000000e+000
      vertex -4.010000e+001 -1.200000e+001  4.000000e+000
      vertex -4.110000e+001  1.100000e+001  4.000000e+000
    endloop
  endfacet
  facet normal  0.000000e+000  0.000000e+000  1.000000e+000
    outer loop
      vertex -4.110000e+001  1.100000e+001  4.000000e+000
      vertex -4.010000e+001 -1.200000e+001  4.000000e+000
      vertex -4.010000e+001  1.000000e+001  4.000000e+000
    endloop
  endfacet
  facet normal  0.000000e+000  -0.000000e+000  1.000000e+000
    outer loop
      vertex -4.110000e+001  1.100000e+001  4.000000e+000
      vertex -4.010000e+001  1.000000e+001  4.000000e+000
      vertex -1.000000e+001  1.100000e+001  4.000000e+000
    endloop
  endfacet
  facet normal  0.000000e+000  0.000000e+000  1.000000e+000
    outer loop
      vertex -1.000000e+001  1.100000e+001  4.000000e+000
      vertex -4.010000e+001  1.000000e+001  4.000000e+000
      vertex -1.100000e+001  1.000000e+001  4.000000e+000
    endloop
  endfacet
  facet normal  -0.000000e+000  0.000000e+000  1.000000e+000
    outer loop
      vertex -1.000000e+001  1.100000e+001  4.000000e+000
      vertex -1.100000e+001  1.000000e+001  4.000000e+000
      vertex -1.000000e+001 -1.300000e+001  4.000000e+000
    endloop
  endfacet
  facet normal  0.000000e+000  0.000000e+000  1.000000e+000
    outer loop
      vertex -1.000000e+001 -1.300000e+001  4.000000e+000
      vertex -1.100000e+001  1.000000e+001  4.000000e+000
      vertex -1.100000e+001 -1.200000e+001  4.000000e+000
    endloop
  endfacet
  facet normal  -0.000000e+000  0.000000e+000 -9.999999e-001
    outer loop
      vertex  2.433144e+001  4.032854e+001  0.000000e+000
      vertex  2.320311e+001  3.855742e+001  0.000000e+000
      vertex -2.688479e+001  3.608612e+001  0.000000e+000
    endloop
  endfacet
  facet normal  0.000000e+000  0.000000e+000 -1.000000e+000
    outer loop
      vertex  2.433144e+001  4.032854e+001  0.000000e+000
      vertex -2.688479e+001  3.608612e+001  0.000000e+000
      vertex -1.989020e+001  4.036558e+001  0.000000e+000
    endloop
  endfacet
  facet normal  0.000000e+000  0.000000e+000 -1.000000e+000
    outer loop
      vertex  2.433144e+001  4.032854e+001  0.000000e+000
      vertex -1.989020e+001  4.036558e+001  0.000000e+000
      vertex  1.975683e+001  4.043103e+001  0.000000e+000
    endloop
  endfacet
  facet normal -1.055615e-017 -4.711735e-016 -1.000000e+000
    outer loop
      vertex  2.433144e+001  4.032854e+001  0.000000e+000
      vertex  1.975683e+001  4.043103e+001  0.000000e+000
      vertex  2.072678e+001  4.229433e+001 -8.881784e-016
    endloop
  endfacet
  facet normal  0.000000e+000  0.000000e+000 -1.000000e+000
    outer loop
      vertex  2.626457e+001 -3.909709e+001  0.000000e+000
      vertex  2.275982e+001 -4.123592e+001  0.000000e+000
      vertex  2.178983e+001 -3.937262e+001  0.000000e+000
    endloop
  endfacet
  facet normal  -0.000000e+000  0.000000e+000 -1.000000e+000
    outer loop
      vertex  2.626457e+001 -3.909709e+001  0.000000e+000
      vertex  2.178983e+001 -3.937262e+001  0.000000e+000
      vertex -1.780910e+001 -4.132597e+001  0.000000e+000
    endloop
  endfacet
  facet normal  0.000000e+000  0.000000e+000 -1.000000e+000
    outer loop
      vertex  2.626457e+001 -3.909709e+001  0.000000e+000
      vertex -1.780910e+001 -4.132597e+001  0.000000e+000
      vertex -2.501252e+001 -3.740821e+001  0.000000e+000
    endloop
  endfacet
  facet normal  0.000000e+000  0.000000e+000 -1.000000e+000
    outer loop
      vertex  2.626457e+001 -3.909709e+001  0.000000e+000
      vertex -2.501252e+001 -3.740821e+001  0.000000e+000
      vertex  2.513588e+001 -3.732543e+001  0.000000e+000
    endloop
  endfacet
  facet normal  0.000000e+000  0.000000e+000 -1.000000e+000
    outer loop
      vertex -4.499326e+001  8.157767e-001  0.000000e+000
      vertex -4.489271e+001 -3.105599e+000  0.000000e+000
      vertex -4.709126e+001  9.073774e-001  0.000000e+000
    endloop
  endfacet
  facet normal  0.000000e+000  0.000000e+000 -1.000000e+000
    outer loop
      vertex -4.709126e+001  9.073774e-001  0.000000e+000
      vertex -4.489271e+001 -3.105599e+000  0.000000e+000
      vertex -4.699136e+001 -3.197244e+000  0.000000e+000
    endloop
  endfacet
  facet normal  0.000000e+000  0.000000e+000 -1.000000e+000
    outer loop
      vertex  4.025958e+000  4.481955e+001  0.000000e+000
      vertex  1.209215e+001  4.334489e+001  0.000000e+000
      vertex -4.173907e+000  4.480601e+001  0.000000e+000
    endloop
  endfacet
  facet normal  0.000000e+000  -0.000000e+000 -1.000000e+000
    outer loop
      vertex -4.173907e+000  4.480601e+001  0.000000e+000
      vertex  1.209215e+001  4.334489e+001  0.000000e+000
      vertex -1.223518e+001  4.330474e+001  0.000000e+000
    endloop
  endfacet
  facet normal  0.000000e+000  0.000000e+000 -1.000000e+000
    outer loop
      vertex  1.209215e+001  4.334489e+001  0.000000e+000
      vertex  1.975683e+001  4.043103e+001  0.000000e+000
      vertex -1.223518e+001  4.330474e+001  0.000000e+000
    endloop
  endfacet
  facet normal  0.000000e+000  -0.000000e+000 -1.000000e+000
    outer loop
      vertex -1.223518e+001  4.330474e+001  0.000000e+000
      vertex  1.975683e+001  4.043103e+001  0.000000e+000
      vertex -1.989020e+001  4.036558e+001  0.000000e+000
    endloop
  endfacet
  facet normal  0.000000e+000  0.000000e+000 -9.999999e-001
    outer loop
      vertex  2.320311e+001  3.855742e+001  0.000000e+000
      vertex  2.944291e+001  3.403109e+001  0.000000e+000
      vertex -2.688479e+001  3.608612e+001  0.000000e+000
    endloop
  endfacet
  facet normal  0.000000e+000  0.000000e+000 -1.000000e+000
    outer loop
      vertex -2.688479e+001  3.608612e+001  0.000000e+000
      vertex  2.944291e+001  3.403109e+001  0.000000e+000
      vertex  3.481907e+001  2.850671e+001  0.000000e+000
    endloop
  endfacet
  facet normal  0.000000e+000  0.000000e+000 -1.000000e+000
    outer loop
      vertex -2.688479e+001  3.608612e+001  0.000000e+000
      vertex  3.481907e+001  2.850671e+001  0.000000e+000
      vertex -3.298669e+001  3.060847e+001  0.000000e+000
    endloop
  endfacet
  facet normal  0.000000e+000  0.000000e+000 -1.000000e+000
    outer loop
      vertex -3.298669e+001  3.060847e+001  0.000000e+000
      vertex  3.481907e+001  2.850671e+001  0.000000e+000
      vertex  3.917349e+001  2.214582e+001  0.000000e+000
    endloop
  endfacet
  facet normal  0.000000e+000  0.000000e+000 -1.000000e+000
    outer loop
      vertex -3.298669e+001  3.060847e+001  0.000000e+000
      vertex  3.917349e+001  2.214582e+001  0.000000e+000
      vertex -3.799331e+001  2.411448e+001  0.000000e+000
    endloop
  endfacet
  facet normal  0.000000e+000  0.000000e+000 -1.000000e+000
    outer loop
      vertex -3.799331e+001  2.411448e+001  0.000000e+000
      vertex  3.917349e+001  2.214582e+001  0.000000e+000
      vertex  4.237840e+001  1.513509e+001  0.000000e+000
    endloop
  endfacet
  facet normal  0.000000e+000  0.000000e+000 -1.000000e+000
    outer loop
      vertex -3.799331e+001  2.411448e+001  0.000000e+000
      vertex  4.237840e+001  1.513509e+001  0.000000e+000
      vertex -4.173840e+001  1.681981e+001  0.000000e+000
    endloop
  endfacet
  facet normal  0.000000e+000  0.000000e+000 -1.000000e+000
    outer loop
      vertex -4.173840e+001  1.681981e+001  0.000000e+000
      vertex  4.237840e+001  1.513509e+001  0.000000e+000
      vertex  4.433976e+001  7.680230e+000  0.000000e+000
    endloop
  endfacet
  facet normal  0.000000e+000  0.000000e+000 -1.000000e+000
    outer loop
      vertex -4.173840e+001  1.681981e+001  0.000000e+000
      vertex  4.433976e+001  7.680230e+000  0.000000e+000
      vertex -4.409761e+001  8.966652e+000  0.000000e+000
    endloop
  endfacet
  facet normal  0.000000e+000  0.000000e+000 -1.000000e+000
    outer loop
      vertex -4.409761e+001  8.966652e+000  0.000000e+000
      vertex  4.433976e+001  7.680230e+000  0.000000e+000
      vertex  4.500000e+001  0.000000e+000  0.000000e+000
    endloop
  endfacet
  facet normal  0.000000e+000  0.000000e+000 -9.999999e-001
    outer loop
      vertex -4.409761e+001  8.966652e+000  0.000000e+000
      vertex  4.500000e+001  0.000000e+000  0.000000e+000
      vertex -4.499326e+001  8.157767e-001  0.000000e+000
    endloop
  endfacet
  facet normal  0.000000e+000  0.000000e+000 -1.000000e+000
    outer loop
      vertex -4.499326e+001  8.157767e-001  0.000000e+000
      vertex  4.500000e+001  0.000000e+000  0.000000e+000
      vertex  4.440336e+001 -7.303520e+000  0.000000e+000
    endloop
  endfacet
  facet normal  0.000000e+000  0.000000e+000 -1.000000e+000
    outer loop
      vertex -4.499326e+001  8.157767e-001  0.000000e+000
      vertex  4.440336e+001 -7.303520e+000  0.000000e+000
      vertex -4.489271e+001 -3.105599e+000  0.000000e+000
    endloop
  endfacet
  facet normal  0.000000e+000  0.000000e+000 -1.000000e+000
    outer loop
      vertex -4.489271e+001 -3.105599e+000  0.000000e+000
      vertex  4.440336e+001 -7.303520e+000  0.000000e+000
      vertex  4.262927e+001 -1.441337e+001  0.000000e+000
    endloop
  endfacet
  facet normal  0.000000e+000  0.000000e+000 -1.000000e+000
    outer loop
      vertex -4.489271e+001 -3.105599e+000  0.000000e+000
      vertex  4.262927e+001 -1.441337e+001  0.000000e+000
      vertex -4.358385e+001 -1.120034e+001  0.000000e+000
    endloop
  endfacet
  facet normal  0.000000e+000  0.000000e+000 -1.000000e+000
    outer loop
      vertex -4.358385e+001 -1.120034e+001  0.000000e+000
      vertex  4.262927e+001 -1.441337e+001  0.000000e+000
      vertex  3.972477e+001 -2.114102e+001  0.000000e+000
    endloop
  endfacet
  facet normal  0.000000e+000  0.000000e+000 -1.000000e+000
    outer loop
      vertex -4.358385e+001 -1.120034e+001  0.000000e+000
      vertex  3.972477e+001 -2.114102e+001  0.000000e+000
      vertex -4.082784e+001 -1.892319e+001  0.000000e+000
    endloop
  endfacet
  facet normal  0.000000e+000  0.000000e+000 -9.999999e-001
    outer loop
      vertex -4.082784e+001 -1.892319e+001  0.000000e+000
      vertex  3.972477e+001 -2.114102e+001  0.000000e+000
      vertex  3.576688e+001 -2.730807e+001  0.000000e+000
    endloop
  endfacet
  facet normal  0.000000e+000  0.000000e+000 -1.000000e+000
    outer loop
      vertex -4.082784e+001 -1.892319e+001  0.000000e+000
      vertex  3.576688e+001 -2.730807e+001  0.000000e+000
      vertex -3.671619e+001 -2.601772e+001  0.000000e+000
    endloop
  endfacet
  facet normal  0.000000e+000  0.000000e+000 -1.000000e+000
    outer loop
      vertex -3.671619e+001 -2.601772e+001  0.000000e+000
      vertex  3.576688e+001 -2.730807e+001  0.000000e+000
      vertex  3.086055e+001 -3.275098e+001  0.000000e+000
    endloop
  endfacet
  facet normal  0.000000e+000  0.000000e+000 -9.999999e-001
    outer loop
      vertex -3.671619e+001 -2.601772e+001  0.000000e+000
      vertex  3.086055e+001 -3.275098e+001  0.000000e+000
      vertex -3.138541e+001 -3.224835e+001  0.000000e+000
    endloop
  endfacet
  facet normal  0.000000e+000  0.000000e+000 -1.000000e+000
    outer loop
      vertex -3.138541e+001 -3.224835e+001  0.000000e+000
      vertex  3.086055e+001 -3.275098e+001  0.000000e+000
      vertex  2.513588e+001 -3.732543e+001  0.000000e+000
    endloop
  endfacet
  facet normal  -0.000000e+000  0.000000e+000 -1.000000e+000
    outer loop
      vertex -3.138541e+001 -3.224835e+001  0.000000e+000
      vertex  2.513588e+001 -3.732543e+001  0.000000e+000
      vertex -2.501252e+001 -3.740821e+001  0.000000e+000
    endloop
  endfacet
  facet normal  0.000000e+000  0.000000e+000 -1.000000e+000
    outer loop
      vertex  2.178983e+001 -3.937262e+001  0.000000e+000
      vertex  1.428346e+001 -4.267298e+001  0.000000e+000
      vertex -1.780910e+001 -4.132597e+001  0.000000e+000
    endloop
  endfacet
  facet normal  0.000000e+000  0.000000e+000 -1.000000e+000
    outer loop
      vertex -1.780910e+001 -4.132597e+001  0.000000e+000
      vertex  1.428346e+001 -4.267298e+001  0.000000e+000
      vertex -1.001436e+001 -4.387155e+001  0.000000e+000
    endloop
  endfacet
  facet normal  0.000000e+000  0.000000e+000 -1.000000e+000
    outer loop
      vertex  1.428346e+001 -4.267298e+001  0.000000e+000
      vertex  6.302816e+000 -4.455642e+001  0.000000e+000
      vertex -1.001436e+001 -4.387155e+001  0.000000e+000
    endloop
  endfacet
  facet normal  0.000000e+000  0.000000e+000 -1.000000e+000
    outer loop
      vertex -1.001436e+001 -4.387155e+001  0.000000e+000
      vertex  6.302816e+000 -4.455642e+001  0.000000e+000
      vertex -1.887102e+000 -4.496041e+001  0.000000e+000
    endloop
  endfacet
  facet normal  9.999659e-001 -8.262482e-003  0.000000e+000
    outer loop
      vertex -4.499326e+001  8.157767e-001  2.000000e+000
      vertex -4.499326e+001  8.157767e-001  4.000000e+000
      vertex -4.500000e+001  5.510911e-015  2.000000e+000
    endloop
  endfacet
  facet normal  9.995810e-001  2.546558e-002 -1.375599e-002
    outer loop
      vertex -4.500000e+001  5.510911e-015  2.000000e+000
      vertex -4.499326e+001  8.157767e-001  4.000000e+000
      vertex -4.489336e+001 -3.105644e+000  4.000000e+000
    endloop
  endfacet
  facet normal  9.994110e-001  3.431845e-002  0.000000e+000
    outer loop
      vertex -4.500000e+001  5.510911e-015  2.000000e+000
      vertex -4.489336e+001 -3.105644e+000  4.000000e+000
      vertex -4.489336e+001 -3.105644e+000  2.000000e+000
    endloop
  endfacet
  facet normal -4.777828e-001 -8.784779e-001  0.000000e+000
    outer loop
      vertex  2.320311e+001  3.855742e+001  4.000000e+000
      vertex  1.975711e+001  4.043161e+001  4.000000e+000
      vertex  2.320311e+001  3.855742e+001  2.000000e+000
    endloop
  endfacet
  facet normal -4.777828e-001 -8.784779e-001  0.000000e+000
    outer loop
      vertex  2.320311e+001  3.855742e+001  2.000000e+000
      vertex  1.975711e+001  4.043161e+001  4.000000e+000
      vertex  1.975711e+001  4.043161e+001  2.000000e+000
    endloop
  endfacet
  facet normal  5.871776e-001  8.094581e-001  0.000000e+000
    outer loop
      vertex  2.320311e+001  3.855742e+001  0.000000e+000
      vertex  2.320311e+001  3.855742e+001  2.000000e+000
      vertex  2.944291e+001  3.403109e+001  0.000000e+000
    endloop
  endfacet
  facet normal  5.871776e-001  8.094581e-001  -0.000000e+000
    outer loop
      vertex  2.944291e+001  3.403109e+001  0.000000e+000
      vertex  2.320311e+001  3.855742e+001  2.000000e+000
      vertex  2.944291e+001  3.403109e+001  2.000000e+000
    endloop
  endfacet
  facet normal  7.166557e-001  6.974272e-001  0.000000e+000
    outer loop
      vertex  2.944291e+001  3.403109e+001  0.000000e+000
      vertex  2.944291e+001  3.403109e+001  2.000000e+000
      vertex  3.481907e+001  2.850671e+001  0.000000e+000
    endloop
  endfacet
  facet normal  7.166557e-001  6.974272e-001  -0.000000e+000
    outer loop
      vertex  3.481907e+001  2.850671e+001  0.000000e+000
      vertex  2.944291e+001  3.403109e+001  2.000000e+000
      vertex  3.481907e+001  2.850671e+001  2.000000e+000
    endloop
  endfacet
  facet normal  8.251719e-001  5.648819e-001  0.000000e+000
    outer loop
      vertex  3.481907e+001  2.850671e+001  0.000000e+000
      vertex  3.481907e+001  2.850671e+001  2.000000e+000
      vertex  3.917349e+001  2.214582e+001  0.000000e+000
    endloop
  endfacet
  facet normal  8.251719e-001  5.648819e-001  -0.000000e+000
    outer loop
      vertex  3.917349e+001  2.214582e+001  0.000000e+000
      vertex  3.481907e+001  2.850671e+001  2.000000e+000
      vertex  3.917349e+001  2.214582e+001  2.000000e+000
    endloop
  endfacet
  facet normal  9.094744e-001  4.157601e-001  0.000000e+000
    outer loop
      vertex  3.917349e+001  2.214582e+001  0.000000e+000
      vertex  3.917349e+001  2.214582e+001  2.000000e+000
      vertex  4.237840e+001  1.513509e+001  0.000000e+000
    endloop
  endfacet
  facet normal  9.094744e-001  4.157601e-001  -0.000000e+000
    outer loop
      vertex  4.237840e+001  1.513509e+001  0.000000e+000
      vertex  3.917349e+001  2.214582e+001  2.000000e+000
      vertex  4.237840e+001  1.513509e+001  2.000000e+000
    endloop
  endfacet
  facet normal  9.670890e-001  2.544385e-001  0.000000e+000
    outer loop
      vertex  4.237840e+001  1.513509e+001  0.000000e+000
      vertex  4.237840e+001  1.513509e+001  2.000000e+000
      vertex  4.433976e+001  7.680230e+000  0.000000e+000
    endloop
  endfacet
  facet normal  9.670890e-001  2.544385e-001  -0.000000e+000
    outer loop
      vertex  4.433976e+001  7.680230e+000  0.000000e+000
      vertex  4.237840e+001  1.513509e+001  2.000000e+000
      vertex  4.433976e+001  7.680230e+000  2.000000e+000
    endloop
  endfacet
  facet normal  9.963253e-001  8.565079e-002  0.000000e+000
    outer loop
      vertex  4.433976e+001  7.680230e+000  0.000000e+000
      vertex  4.433976e+001  7.680230e+000  2.000000e+000
      vertex  4.500000e+001  0.000000e+000  0.000000e+000
    endloop
  endfacet
  facet normal  9.963253e-001  8.565079e-002  -0.000000e+000
    outer loop
      vertex  4.500000e+001  0.000000e+000  0.000000e+000
      vertex  4.433976e+001  7.680230e+000  2.000000e+000
      vertex  4.500000e+001  0.000000e+000  2.000000e+000
    endloop
  endfacet
  facet normal -9.940169e-001  1.092263e-001  0.000000e+000
    outer loop
      vertex -4.499326e+001  8.157767e-001  0.000000e+000
      vertex -4.499326e+001  8.157767e-001  2.000000e+000
      vertex -4.409761e+001  8.966652e+000  0.000000e+000
    endloop
  endfacet
  facet normal -9.940169e-001  1.092263e-001  0.000000e+000
    outer loop
      vertex -4.409761e+001  8.966652e+000  0.000000e+000
      vertex -4.499326e+001  8.157767e-001  2.000000e+000
      vertex -4.409761e+001  8.966652e+000  2.000000e+000
    endloop
  endfacet
  facet normal -9.577167e-001  2.877130e-001  0.000000e+000
    outer loop
      vertex -4.409761e+001  8.966652e+000  0.000000e+000
      vertex -4.409761e+001  8.966652e+000  2.000000e+000
      vertex -4.173840e+001  1.681981e+001  0.000000e+000
    endloop
  endfacet
  facet normal -9.577167e-001  2.877130e-001  0.000000e+000
    outer loop
      vertex -4.173840e+001  1.681981e+001  0.000000e+000
      vertex -4.409761e+001  8.966652e+000  2.000000e+000
      vertex -4.173840e+001  1.681981e+001  2.000000e+000
    endloop
  endfacet
  facet normal -8.896078e-001  4.567253e-001  0.000000e+000
    outer loop
      vertex -4.173840e+001  1.681981e+001  0.000000e+000
      vertex -4.173840e+001  1.681981e+001  2.000000e+000
      vertex -3.799331e+001  2.411448e+001  0.000000e+000
    endloop
  endfacet
  facet normal -8.896078e-001  4.567253e-001  0.000000e+000
    outer loop
      vertex -3.799331e+001  2.411448e+001  0.000000e+000
      vertex -4.173840e+001  1.681981e+001  2.000000e+000
      vertex -3.799331e+001  2.411448e+001  2.000000e+000
    endloop
  endfacet
  facet normal -7.919608e-001  6.105720e-001  0.000000e+000
    outer loop
      vertex -3.799331e+001  2.411448e+001  0.000000e+000
      vertex -3.799331e+001  2.411448e+001  2.000000e+000
      vertex -3.298669e+001  3.060847e+001  0.000000e+000
    endloop
  endfacet
  facet normal -7.919608e-001  6.105720e-001  0.000000e+000
    outer loop
      vertex -3.298669e+001  3.060847e+001  0.000000e+000
      vertex -3.799331e+001  2.411448e+001  2.000000e+000
      vertex -3.298669e+001  3.060847e+001  2.000000e+000
    endloop
  endfacet
  facet normal -6.680169e-001  7.441461e-001  0.000000e+000
    outer loop
      vertex -3.298669e+001  3.060847e+001  0.000000e+000
      vertex -3.298669e+001  3.060847e+001  2.000000e+000
      vertex -2.688479e+001  3.608612e+001  0.000000e+000
    endloop
  endfacet
  facet normal -6.680169e-001  7.441461e-001  0.000000e+000
    outer loop
      vertex -2.688479e+001  3.608612e+001  0.000000e+000
      vertex -3.298669e+001  3.060847e+001  2.000000e+000
      vertex -2.688479e+001  3.608612e+001  2.000000e+000
    endloop
  endfacet
  facet normal -5.218928e-001  8.530111e-001  0.000000e+000
    outer loop
      vertex -2.688479e+001  3.608612e+001  0.000000e+000
      vertex -2.688479e+001  3.608612e+001  2.000000e+000
      vertex -1.989020e+001  4.036558e+001  0.000000e+000
    endloop
  endfacet
  facet normal -5.218928e-001  8.530111e-001  0.000000e+000
    outer loop
      vertex -1.989020e+001  4.036558e+001  0.000000e+000
      vertex -2.688479e+001  3.608612e+001  2.000000e+000
      vertex -1.989020e+001  4.036558e+001  2.000000e+000
    endloop
  endfacet
  facet normal -3.584395e-001  9.335530e-001  0.000000e+000
    outer loop
      vertex -1.989020e+001  4.036558e+001  0.000000e+000
      vertex -1.989020e+001  4.036558e+001  2.000000e+000
      vertex -1.223518e+001  4.330474e+001  0.000000e+000
    endloop
  endfacet
  facet normal -3.584395e-001  9.335530e-001  0.000000e+000
    outer loop
      vertex -1.223518e+001  4.330474e+001  0.000000e+000
      vertex -1.989020e+001  4.036558e+001  2.000000e+000
      vertex -1.223518e+001  4.330474e+001  2.000000e+000
    endloop
  endfacet
  facet normal -1.830850e-001  9.830972e-001  0.000000e+000
    outer loop
      vertex -1.223518e+001  4.330474e+001  0.000000e+000
      vertex -1.223518e+001  4.330474e+001  2.000000e+000
      vertex -4.173907e+000  4.480601e+001  0.000000e+000
    endloop
  endfacet
  facet normal -1.830850e-001  9.830972e-001  0.000000e+000
    outer loop
      vertex -4.173907e+000  4.480601e+001  0.000000e+000
      vertex -1.223518e+001  4.330474e+001  2.000000e+000
      vertex -4.173907e+000  4.480601e+001  2.000000e+000
    endloop
  endfacet
  facet normal -1.650579e-003  9.999986e-001  0.000000e+000
    outer loop
      vertex -4.173907e+000  4.480601e+001  0.000000e+000
      vertex -4.173907e+000  4.480601e+001  2.000000e+000
      vertex  4.025958e+000  4.481955e+001  0.000000e+000
    endloop
  endfacet
  facet normal -1.650579e-003  9.999986e-001  0.000000e+000
    outer loop
      vertex  4.025958e+000  4.481955e+001  0.000000e+000
      vertex -4.173907e+000  4.480601e+001  2.000000e+000
      vertex  4.025958e+000  4.481955e+001  2.000000e+000
    endloop
  endfacet
  facet normal  1.798382e-001  9.836963e-001  0.000000e+000
    outer loop
      vertex  4.025958e+000  4.481955e+001  0.000000e+000
      vertex  4.025958e+000  4.481955e+001  2.000000e+000
      vertex  1.209215e+001  4.334489e+001  0.000000e+000
    endloop
  endfacet
  facet normal  1.798382e-001  9.836963e-001  -0.000000e+000
    outer loop
      vertex  1.209215e+001  4.334489e+001  0.000000e+000
      vertex  4.025958e+000  4.481955e+001  2.000000e+000
      vertex  1.209215e+001  4.334489e+001  2.000000e+000
    endloop
  endfacet
  facet normal  3.553552e-001  9.347314e-001  0.000000e+000
    outer loop
      vertex  1.209215e+001  4.334489e+001  0.000000e+000
      vertex  1.209215e+001  4.334489e+001  2.000000e+000
      vertex  1.975683e+001  4.043103e+001  0.000000e+000
    endloop
  endfacet
  facet normal  3.552814e-001  9.347594e-001 -3.236090e-004
    outer loop
      vertex  1.975683e+001  4.043103e+001  0.000000e+000
      vertex  1.209215e+001  4.334489e+001  2.000000e+000
      vertex  1.975711e+001  4.043161e+001  2.000000e+000
    endloop
  endfacet
  facet normal  4.024883e-001 -9.154251e-001  0.000000e+000
    outer loop
      vertex  2.178983e+001 -3.937262e+001  0.000000e+000
      vertex  2.178983e+001 -3.937262e+001  2.000000e+000
      vertex  1.428346e+001 -4.267298e+001  0.000000e+000
    endloop
  endfacet
  facet normal  4.024883e-001 -9.154251e-001  0.000000e+000
    outer loop
      vertex  1.428346e+001 -4.267298e+001  0.000000e+000
      vertex  2.178983e+001 -3.937262e+001  2.000000e+000
      vertex  1.428346e+001 -4.267298e+001  2.000000e+000
    endloop
  endfacet
  facet normal  2.296915e-001 -9.732635e-001  0.000000e+000
    outer loop
      vertex  1.428346e+001 -4.267298e+001  0.000000e+000
      vertex  1.428346e+001 -4.267298e+001  2.000000e+000
      vertex  6.302816e+000 -4.455642e+001  0.000000e+000
    endloop
  endfacet
  facet normal  2.296915e-001 -9.732635e-001  0.000000e+000
    outer loop
      vertex  6.302816e+000 -4.455642e+001  0.000000e+000
      vertex  1.428346e+001 -4.267298e+001  2.000000e+000
      vertex  6.302816e+000 -4.455642e+001  2.000000e+000
    endloop
  endfacet
  facet normal  4.926849e-002 -9.987856e-001  0.000000e+000
    outer loop
      vertex  6.302816e+000 -4.455642e+001  0.000000e+000
      vertex  6.302816e+000 -4.455642e+001  2.000000e+000
      vertex -1.887102e+000 -4.496041e+001  0.000000e+000
    endloop
  endfacet
  facet normal  4.926849e-002 -9.987856e-001  0.000000e+000
    outer loop
      vertex -1.887102e+000 -4.496041e+001  0.000000e+000
      vertex  6.302816e+000 -4.455642e+001  2.000000e+000
      vertex -1.887102e+000 -4.496041e+001  2.000000e+000
    endloop
  endfacet
  facet normal -1.327907e-001 -9.911441e-001  -0.000000e+000
    outer loop
      vertex -1.887102e+000 -4.496041e+001  0.000000e+000
      vertex -1.887102e+000 -4.496041e+001  2.000000e+000
      vertex -1.001436e+001 -4.387155e+001  0.000000e+000
    endloop
  endfacet
  facet normal -1.327907e-001 -9.911441e-001  0.000000e+000
    outer loop
      vertex -1.001436e+001 -4.387155e+001  0.000000e+000
      vertex -1.887102e+000 -4.496041e+001  2.000000e+000
      vertex -1.001436e+001 -4.387155e+001  2.000000e+000
    endloop
  endfacet
  facet normal -3.104410e-001 -9.505927e-001  -0.000000e+000
    outer loop
      vertex -1.001436e+001 -4.387155e+001  0.000000e+000
      vertex -1.001436e+001 -4.387155e+001  2.000000e+000
      vertex -1.780910e+001 -4.132597e+001  0.000000e+000
    endloop
  endfacet
  facet normal -3.104410e-001 -9.505927e-001  0.000000e+000
    outer loop
      vertex -1.780910e+001 -4.132597e+001  0.000000e+000
      vertex -1.001436e+001 -4.387155e+001  2.000000e+000
      vertex -1.780910e+001 -4.132597e+001  2.000000e+000
    endloop
  endfacet
  facet normal -4.777827e-001 -8.784781e-001  -0.000000e+000
    outer loop
      vertex -1.780910e+001 -4.132597e+001  0.000000e+000
      vertex -1.780910e+001 -4.132597e+001  2.000000e+000
      vertex -2.501252e+001 -3.740821e+001  0.000000e+000
    endloop
  endfacet
  facet normal -4.777827e-001 -8.784781e-001  0.000000e+000
    outer loop
      vertex -2.501252e+001 -3.740821e+001  0.000000e+000
      vertex -1.780910e+001 -4.132597e+001  2.000000e+000
      vertex -2.501252e+001 -3.740821e+001  2.000000e+000
    endloop
  endfacet
  facet normal -6.292609e-001 -7.771941e-001  -0.000000e+000
    outer loop
      vertex -2.501252e+001 -3.740821e+001  0.000000e+000
      vertex -2.501252e+001 -3.740821e+001  2.000000e+000
      vertex -3.138541e+001 -3.224835e+001  0.000000e+000
    endloop
  endfacet
  facet normal -6.292609e-001 -7.771941e-001  0.000000e+000
    outer loop
      vertex -3.138541e+001 -3.224835e+001  0.000000e+000
      vertex -2.501252e+001 -3.740821e+001  2.000000e+000
      vertex -3.138541e+001 -3.224835e+001  2.000000e+000
    endloop
  endfacet
  facet normal -7.598447e-001 -6.501047e-001  -0.000000e+000
    outer loop
      vertex -3.138541e+001 -3.224835e+001  0.000000e+000
      vertex -3.138541e+001 -3.224835e+001  2.000000e+000
      vertex -3.671619e+001 -2.601772e+001  0.000000e+000
    endloop
  endfacet
  facet normal -7.598447e-001 -6.501047e-001  0.000000e+000
    outer loop
      vertex -3.671619e+001 -2.601772e+001  0.000000e+000
      vertex -3.138541e+001 -3.224835e+001  2.000000e+000
      vertex -3.671619e+001 -2.601772e+001  2.000000e+000
    endloop
  endfacet
  facet normal -8.651990e-001 -5.014286e-001  -0.000000e+000
    outer loop
      vertex -3.671619e+001 -2.601772e+001  0.000000e+000
      vertex -3.671619e+001 -2.601772e+001  2.000000e+000
      vertex -4.082784e+001 -1.892319e+001  0.000000e+000
    endloop
  endfacet
  facet normal -8.651990e-001 -5.014286e-001  0.000000e+000
    outer loop
      vertex -4.082784e+001 -1.892319e+001  0.000000e+000
      vertex -3.671619e+001 -2.601772e+001  2.000000e+000
      vertex -4.082784e+001 -1.892319e+001  2.000000e+000
    endloop
  endfacet
  facet normal -9.418249e-001 -3.361040e-001  -0.000000e+000
    outer loop
      vertex -4.082784e+001 -1.892319e+001  0.000000e+000
      vertex -4.082784e+001 -1.892319e+001  2.000000e+000
      vertex -4.358385e+001 -1.120034e+001  0.000000e+000
    endloop
  endfacet
  facet normal -9.418249e-001 -3.361040e-001  0.000000e+000
    outer loop
      vertex -4.358385e+001 -1.120034e+001  0.000000e+000
      vertex -4.082784e+001 -1.892319e+001  2.000000e+000
      vertex -4.358385e+001 -1.120034e+001  2.000000e+000
    endloop
  endfacet
  facet normal -9.871787e-001 -1.596186e-001  -0.000000e+000
    outer loop
      vertex -4.358385e+001 -1.120034e+001  0.000000e+000
      vertex -4.358385e+001 -1.120034e+001  2.000000e+000
      vertex -4.489271e+001 -3.105599e+000  0.000000e+000
    endloop
  endfacet
  facet normal -9.871662e-001 -1.596966e-001 -3.236669e-004
    outer loop
      vertex -4.489271e+001 -3.105599e+000  0.000000e+000
      vertex -4.358385e+001 -1.120034e+001  2.000000e+000
      vertex -4.489336e+001 -3.105644e+000  2.000000e+000
    endloop
  endfacet
  facet normal  4.362724e-002 -9.990479e-001 -8.243908e-006
    outer loop
      vertex -4.489271e+001 -3.105599e+000  0.000000e+000
      vertex -4.489336e+001 -3.105644e+000  2.000000e+000
      vertex -4.699136e+001 -3.197244e+000  0.000000e+000
    endloop
  endfacet
  facet normal  4.361939e-002 -9.990482e-001  0.000000e+000
    outer loop
      vertex -4.699136e+001 -3.197244e+000  0.000000e+000
      vertex -4.489336e+001 -3.105644e+000  2.000000e+000
      vertex -4.489336e+001 -3.105644e+000  4.000000e+000
    endloop
  endfacet
  facet normal  4.361939e-002 -9.990482e-001  0.000000e+000
    outer loop
      vertex -4.699136e+001 -3.197244e+000  0.000000e+000
      vertex -4.489336e+001 -3.105644e+000  4.000000e+000
      vertex -4.699136e+001 -3.197244e+000  4.000000e+000
    endloop
  endfacet
  facet normal  4.361942e-002  9.990482e-001  0.000000e+000
    outer loop
      vertex -4.499326e+001  8.157767e-001  0.000000e+000
      vertex -4.709126e+001  9.073774e-001  0.000000e+000
      vertex -4.499326e+001  8.157767e-001  2.000000e+000
    endloop
  endfacet
  facet normal  4.361942e-002  9.990482e-001  0.000000e+000
    outer loop
      vertex -4.499326e+001  8.157767e-001  2.000000e+000
      vertex -4.709126e+001  9.073774e-001  0.000000e+000
      vertex -4.709126e+001  9.073774e-001  4.000000e+000
    endloop
  endfacet
  facet normal  4.361942e-002  9.990482e-001  0.000000e+000
    outer loop
      vertex -4.499326e+001  8.157767e-001  2.000000e+000
      vertex -4.709126e+001  9.073774e-001  4.000000e+000
      vertex -4.499326e+001  8.157767e-001  4.000000e+000
    endloop
  endfacet
  facet normal -8.870142e-001  4.617421e-001 -7.859173e-006
    outer loop
      vertex  1.975683e+001  4.043103e+001  0.000000e+000
      vertex  1.975711e+001  4.043161e+001  2.000000e+000
      vertex  2.072678e+001  4.229433e+001 -8.881784e-016
    endloop
  endfacet
  facet normal -8.870108e-001  4.617488e-001  0.000000e+000
    outer loop
      vertex  2.072678e+001  4.229433e+001 -8.881784e-016
      vertex  1.975711e+001  4.043161e+001  2.000000e+000
      vertex  1.975711e+001  4.043161e+001  4.000000e+000
    endloop
  endfacet
  facet normal -8.870108e-001  4.617488e-001  0.000000e+000
    outer loop
      vertex  2.072678e+001  4.229433e+001 -8.881784e-016
      vertex  1.975711e+001  4.043161e+001  4.000000e+000
      vertex  2.072678e+001  4.229433e+001  4.000000e+000
    endloop
  endfacet
  facet normal  8.433912e-001 -5.372999e-001  0.000000e+000
    outer loop
      vertex  2.320311e+001  3.855742e+001  0.000000e+000
      vertex  2.433144e+001  4.032854e+001  0.000000e+000
      vertex  2.320311e+001  3.855742e+001  2.000000e+000
    endloop
  endfacet
  facet normal  8.433912e-001 -5.372999e-001  0.000000e+000
    outer loop
      vertex  2.320311e+001  3.855742e+001  2.000000e+000
      vertex  2.433144e+001  4.032854e+001  0.000000e+000
      vertex  2.433144e+001  4.032854e+001  4.000000e+000
    endloop
  endfacet
  facet normal  8.433912e-001 -5.372999e-001  0.000000e+000
    outer loop
      vertex  2.320311e+001  3.855742e+001  2.000000e+000
      vertex  2.433144e+001  4.032854e+001  4.000000e+000
      vertex  2.320311e+001  3.855742e+001  4.000000e+000
    endloop
  endfacet
  facet normal -9.997039e-001 -2.433197e-002  0.000000e+000
    outer loop
      vertex -4.709126e+001  9.073774e-001  4.000000e+000
      vertex -4.709126e+001  9.073774e-001  0.000000e+000
      vertex -4.699136e+001 -3.197244e+000  4.000000e+000
    endloop
  endfacet
  facet normal -9.997039e-001 -2.433197e-002  -0.000000e+000
    outer loop
      vertex -4.699136e+001 -3.197244e+000  4.000000e+000
      vertex -4.709126e+001  9.073774e-001  0.000000e+000
      vertex -4.699136e+001 -3.197244e+000  0.000000e+000
    endloop
  endfacet
  facet normal  0.000000e+000  0.000000e+000  1.000000e+000
    outer loop
      vertex -4.699136e+001 -3.197244e+000  4.000000e+000
      vertex -4.489336e+001 -3.105644e+000  4.000000e+000
      vertex -4.709126e+001  9.073774e-001  4.000000e+000
    endloop
  endfacet
  facet normal  0.000000e+000  0.000000e+000  1.000000e+000
    outer loop
      vertex -4.709126e+001  9.073774e-001  4.000000e+000
      vertex -4.489336e+001 -3.105644e+000  4.000000e+000
      vertex -4.499326e+001  8.157767e-001  4.000000e+000
    endloop
  endfacet
  facet normal  4.787802e-001  8.779349e-001  -0.000000e+000
    outer loop
      vertex  2.433144e+001  4.032854e+001  4.000000e+000
      vertex  2.433144e+001  4.032854e+001  0.000000e+000
      vertex  2.072678e+001  4.229433e+001  4.000000e+000
    endloop
  endfacet
  facet normal  4.787802e-001  8.779349e-001  0.000000e+000
    outer loop
      vertex  2.072678e+001  4.229433e+001  4.000000e+000
      vertex  2.433144e+001  4.032854e+001  0.000000e+000
      vertex  2.072678e+001  4.229433e+001 -8.881784e-016
    endloop
  endfacet
  facet normal  0.000000e+000  0.000000e+000  1.000000e+000
    outer loop
      vertex  1.975711e+001  4.043161e+001  4.000000e+000
      vertex  2.320311e+001  3.855742e+001  4.000000e+000
      vertex  2.072678e+001  4.229433e+001  4.000000e+000
    endloop
  endfacet
  facet normal  0.000000e+000  0.000000e+000  1.000000e+000
    outer loop
      vertex  2.072678e+001  4.229433e+001  4.000000e+000
      vertex  2.320311e+001  3.855742e+001  4.000000e+000
      vertex  2.433144e+001  4.032854e+001  4.000000e+000
    endloop
  endfacet
  facet normal  8.433869e-001  5.373067e-001  0.000000e+000
    outer loop
      vertex  2.513588e+001 -3.732543e+001  0.000000e+000
      vertex  2.513588e+001 -3.732543e+001  2.000000e+000
      vertex  2.626457e+001 -3.909709e+001  0.000000e+000
    endloop
  endfacet
  facet normal  8.433827e-001  5.373133e-001 -8.311134e-006
    outer loop
      vertex  2.626457e+001 -3.909709e+001  0.000000e+000
      vertex  2.513588e+001 -3.732543e+001  2.000000e+000
      vertex  2.513624e+001 -3.732597e+001  4.000000e+000
    endloop
  endfacet
  facet normal  8.433912e-001  5.372999e-001  0.000000e+000
    outer loop
      vertex  2.626457e+001 -3.909709e+001  0.000000e+000
      vertex  2.513624e+001 -3.732597e+001  4.000000e+000
      vertex  2.626457e+001 -3.909709e+001  4.000000e+000
    endloop
  endfacet
  facet normal -5.218932e-001  8.530107e-001  3.250479e-004
    outer loop
      vertex  2.179015e+001 -3.937319e+001  4.000000e+000
      vertex  2.513624e+001 -3.732597e+001  4.000000e+000
      vertex  2.178983e+001 -3.937262e+001  2.000000e+000
    endloop
  endfacet
  facet normal -5.218927e-001  8.530110e-001  3.239584e-004
    outer loop
      vertex  2.178983e+001 -3.937262e+001  2.000000e+000
      vertex  2.513624e+001 -3.732597e+001  4.000000e+000
      vertex  2.513588e+001 -3.732543e+001  2.000000e+000
    endloop
  endfacet
  facet normal -8.870071e-001 -4.617558e-001  0.000000e+000
    outer loop
      vertex  2.178983e+001 -3.937262e+001  0.000000e+000
      vertex  2.275982e+001 -4.123592e+001  0.000000e+000
      vertex  2.178983e+001 -3.937262e+001  2.000000e+000
    endloop
  endfacet
  facet normal -8.870071e-001 -4.617558e-001  0.000000e+000
    outer loop
      vertex  2.178983e+001 -3.937262e+001  2.000000e+000
      vertex  2.275982e+001 -4.123592e+001  0.000000e+000
      vertex  2.275982e+001 -4.123592e+001  4.000000e+000
    endloop
  endfacet
  facet normal -8.870111e-001 -4.617480e-001  9.196141e-006
    outer loop
      vertex  2.178983e+001 -3.937262e+001  2.000000e+000
      vertex  2.275982e+001 -4.123592e+001  4.000000e+000
      vertex  2.179015e+001 -3.937319e+001  4.000000e+000
    endloop
  endfacet
  facet normal  9.966798e-001 -8.142058e-002  0.000000e+000
    outer loop
      vertex  4.500000e+001  0.000000e+000  0.000000e+000
      vertex  4.500000e+001  0.000000e+000  2.000000e+000
      vertex  4.440336e+001 -7.303520e+000  0.000000e+000
    endloop
  endfacet
  facet normal  9.966798e-001 -8.142058e-002  0.000000e+000
    outer loop
      vertex  4.440336e+001 -7.303520e+000  0.000000e+000
      vertex  4.500000e+001  0.000000e+000  2.000000e+000
      vertex  4.440336e+001 -7.303520e+000  2.000000e+000
    endloop
  endfacet
  facet normal  9.702507e-001 -2.421024e-001  0.000000e+000
    outer loop
      vertex  4.440336e+001 -7.303520e+000  0.000000e+000
      vertex  4.440336e+001 -7.303520e+000  2.000000e+000
      vertex  4.262927e+001 -1.441337e+001  0.000000e+000
    endloop
  endfacet
  facet normal  9.702507e-001 -2.421024e-001  0.000000e+000
    outer loop
      vertex  4.262927e+001 -1.441337e+001  0.000000e+000
      vertex  4.440336e+001 -7.303520e+000  2.000000e+000
      vertex  4.262927e+001 -1.441337e+001  2.000000e+000
    endloop
  endfacet
  facet normal  9.180930e-001 -3.963650e-001  0.000000e+000
    outer loop
      vertex  4.262927e+001 -1.441337e+001  0.000000e+000
      vertex  4.262927e+001 -1.441337e+001  2.000000e+000
      vertex  3.972477e+001 -2.114102e+001  0.000000e+000
    endloop
  endfacet
  facet normal  9.180930e-001 -3.963650e-001  0.000000e+000
    outer loop
      vertex  3.972477e+001 -2.114102e+001  0.000000e+000
      vertex  4.262927e+001 -1.441337e+001  2.000000e+000
      vertex  3.972477e+001 -2.114102e+001  2.000000e+000
    endloop
  endfacet
  facet normal  8.415902e-001 -5.401165e-001  0.000000e+000
    outer loop
      vertex  3.972477e+001 -2.114102e+001  0.000000e+000
      vertex  3.972477e+001 -2.114102e+001  2.000000e+000
      vertex  3.576688e+001 -2.730807e+001  0.000000e+000
    endloop
  endfacet
  facet normal  8.415902e-001 -5.401165e-001  0.000000e+000
    outer loop
      vertex  3.576688e+001 -2.730807e+001  0.000000e+000
      vertex  3.972477e+001 -2.114102e+001  2.000000e+000
      vertex  3.576688e+001 -2.730807e+001  2.000000e+000
    endloop
  endfacet
  facet normal  7.427711e-001 -6.695454e-001  0.000000e+000
    outer loop
      vertex  3.576688e+001 -2.730807e+001  0.000000e+000
      vertex  3.576688e+001 -2.730807e+001  2.000000e+000
      vertex  3.086055e+001 -3.275098e+001  0.000000e+000
    endloop
  endfacet
  facet normal  7.427711e-001 -6.695454e-001  0.000000e+000
    outer loop
      vertex  3.086055e+001 -3.275098e+001  0.000000e+000
      vertex  3.576688e+001 -2.730807e+001  2.000000e+000
      vertex  3.086055e+001 -3.275098e+001  2.000000e+000
    endloop
  endfacet
  facet normal  6.242551e-001 -7.812206e-001  0.000000e+000
    outer loop
      vertex  3.086055e+001 -3.275098e+001  0.000000e+000
      vertex  3.086055e+001 -3.275098e+001  2.000000e+000
      vertex  2.513588e+001 -3.732543e+001  0.000000e+000
    endloop
  endfacet
  facet normal  6.242551e-001 -7.812206e-001  0.000000e+000
    outer loop
      vertex  2.513588e+001 -3.732543e+001  0.000000e+000
      vertex  3.086055e+001 -3.275098e+001  2.000000e+000
      vertex  2.513588e+001 -3.732543e+001  2.000000e+000
    endloop
  endfacet
  facet normal  0.000000e+000  -0.000000e+000  1.000000e+000
    outer loop
      vertex  2.179015e+001 -3.937319e+001  4.000000e+000
      vertex  2.275982e+001 -4.123592e+001  4.000000e+000
      vertex  2.513624e+001 -3.732597e+001  4.000000e+000
    endloop
  endfacet
  facet normal  0.000000e+000  0.000000e+000  9.999999e-001
    outer loop
      vertex  2.513624e+001 -3.732597e+001  4.000000e+000
      vertex  2.275982e+001 -4.123592e+001  4.000000e+000
      vertex  2.626457e+001 -3.909709e+001  4.000000e+000
    endloop
  endfacet
  facet normal  5.209237e-001 -8.536032e-001  0.000000e+000
    outer loop
      vertex  2.275982e+001 -4.123592e+001  4.000000e+000
      vertex  2.275982e+001 -4.123592e+001  0.000000e+000
      vertex  2.626457e+001 -3.909709e+001  4.000000e+000
    endloop
  endfacet
  facet normal  5.209237e-001 -8.536032e-001  0.000000e+000
    outer loop
      vertex  2.626457e+001 -3.909709e+001  4.000000e+000
      vertex  2.275982e+001 -4.123592e+001  0.000000e+000
      vertex  2.626457e+001 -3.909709e+001  0.000000e+000
    endloop
  endfacet
endsolid CATIA STL
